<?xml version="1.0" encoding="UTF-8" standalone="no"?>
<!-- Created with Inkscape (http://www.inkscape.org/) -->

<svg
   width="149.09583"
   height="62.405361"
   viewBox="0 0 39.448271 16.511417"
   version="1.1"
   id="svg1"
   xml:space="preserve"
   xmlns:xlink="http://www.w3.org/1999/xlink"
   xmlns="http://www.w3.org/2000/svg"
   xmlns:svg="http://www.w3.org/2000/svg"><defs
     id="defs1"><linearGradient
       id="linearGradient5"><stop
         style="stop-color:#06b6d4;stop-opacity:1;"
         offset="0.20974289"
         id="stop3" /><stop
         style="stop-color:#6d28d9;stop-opacity:1;"
         offset="0.38791069"
         id="stop4" /><stop
         style="stop-color:#ec4899;stop-opacity:1;"
         offset="0.60860217"
         id="stop6" /><stop
         style="stop-color:#f97316;stop-opacity:1;"
         offset="0.8159675"
         id="stop5" /></linearGradient><linearGradient
       id="linearGradient30"><stop
         style="stop-color:#fef08a;stop-opacity:1;"
         offset="0"
         id="stop29" /><stop
         style="stop-color:#eab308;stop-opacity:1;"
         offset="1"
         id="stop30" /></linearGradient><linearGradient
       id="linearGradient25"><stop
         style="stop-color:#fef08a;stop-opacity:1;"
         offset="0"
         id="stop25" /><stop
         style="stop-color:#ffce00;stop-opacity:1;"
         offset="1"
         id="stop26" /></linearGradient><linearGradient
       xlink:href="#linearGradient6"
       id="linearGradient8"
       x1="15.083038"
       y1="9.7583179"
       x2="17.143671"
       y2="9.3141584"
       gradientUnits="userSpaceOnUse"
       gradientTransform="matrix(2.1832058,0,0,2.1832058,111.88342,90.968121)" /><linearGradient
       id="linearGradient6"><stop
         style="stop-color:#ea580c;stop-opacity:1;"
         offset="0"
         id="stop7" /><stop
         style="stop-color:#ff8c36;stop-opacity:1;"
         offset="1"
         id="stop8" /></linearGradient><linearGradient
       xlink:href="#linearGradient175"
       id="linearGradient176"
       x1="1.0581446"
       y1="9.2239799"
       x2="3.3587396"
       y2="9.369256"
       gradientUnits="userSpaceOnUse"
       gradientTransform="matrix(2.1832058,0,0,2.1832058,111.88342,90.968121)" /><linearGradient
       id="linearGradient175"><stop
         style="stop-color:#00c9db;stop-opacity:1;"
         offset="0"
         id="stop175" /><stop
         style="stop-color:#0891b2;stop-opacity:1;"
         offset="1"
         id="stop176" /></linearGradient><linearGradient
       xlink:href="#linearGradient1"
       id="linearGradient2"
       x1="4.1462159"
       y1="10.224313"
       x2="5.5784869"
       y2="10.895846"
       gradientUnits="userSpaceOnUse" /><linearGradient
       id="linearGradient1"><stop
         style="stop-color:#06b6d4;stop-opacity:1;"
         offset="0"
         id="stop1" /><stop
         style="stop-color:#39e8ff;stop-opacity:1;"
         offset="1"
         id="stop2" /></linearGradient><filter
       style="color-interpolation-filters:sRGB"
       id="filter187"
       x="0"
       y="0"
       width="1"
       height="1"><feFlood
         result="flood1"
         flood-color="rgb(198,0,0)"
         flood-opacity="0.172549"
         id="feFlood187" /><feBlend
         result="blend1"
         in="flood1"
         in2="SourceGraphic"
         mode="hard-light"
         id="feBlend187" /><feComposite
         operator="in"
         in="blend1"
         in2="SourceGraphic"
         id="feComposite187" /></filter><linearGradient
       xlink:href="#linearGradient5"
       id="linearGradient7"
       gradientUnits="userSpaceOnUse"
       gradientTransform="matrix(0.90157488,0,0,1,0.94161522,0)"
       x1="0.84473455"
       y1="8.6206245"
       x2="18.150963"
       y2="8.6206245" /><radialGradient
       xlink:href="#linearGradient30"
       id="radialGradient15"
       gradientUnits="userSpaceOnUse"
       gradientTransform="matrix(2.0224824,0.82216334,-1.2014709,2.9555607,125.44482,81.267746)"
       cx="2.9812629"
       cy="10.872172"
       fx="2.9812629"
       fy="10.872172"
       r="1.9679179" /><radialGradient
       xlink:href="#linearGradient25"
       id="radialGradient22"
       gradientUnits="userSpaceOnUse"
       gradientTransform="matrix(0.89210545,-0.38362324,0.41746133,0.97079503,-2.8830544,6.222786)"
       cx="15.283519"
       cy="11.701982"
       fx="15.283519"
       fy="11.701982"
       r="1.8067596" /></defs><g
     id="layer1"
     transform="translate(-112.53832,-102.7461)"><path
       id="use5"
       clip-path="none"
       style="display:inline;vector-effect:none;fill:url(#linearGradient7);fill-rule:evenodd;stroke-width:0.12119;stop-color:#000000"
       d="m 9.5464118,5.3948093 c -1.7679049,0 -3.2585419,1.1196005 -3.6993808,2.7341191 C 5.5744869,8.7906914 5.1569858,9.2553125 4.8412936,9.5361086 4.7716625,9.3005651 4.7002206,9.1621229 4.7002205,9.1621229 5.2868814,8.9135379 6.0419642,7.6530245 4.9833135,7.0114688 5.1395775,6.476825 5.5741161,6.150355 5.5741161,6.150355 a 0.1322915,0.1322915 0 0 0 0.029351,-0.1855726 0.1322915,0.1322915 0 0 0 -0.087816,-0.052784 0.1322915,0.1322915 0 0 0 -0.097757,0.025564 c 0,0 -0.4809256,0.3494235 -0.6743577,0.95319 -0.02849,-0.011951 -0.056285,-0.024258 -0.086632,-0.035505 -0.04629,-0.017155 -0.090502,-0.031021 -0.1339721,-0.043789 V 6.8112208 C 4.4384266,6.2290341 4.0220757,5.8012228 4.0220757,5.8012228 a 0.15000001,0.15000001 0 0 0 -0.1036745,-0.046866 0.15000001,0.15000001 0 0 0 -0.107225,0.039055 0.15000001,0.15000001 0 0 0 -0.00781,0.2130298 c 0,0 0.3005764,0.3327274 0.4021529,0.7465511 C 2.9819341,6.6795482 3.19481,8.6965345 3.19481,8.6965345 c 0,0 -1.5666732,0.6527946 -1.6135824,1.9818875 -0.03249,0.920542 0.3289793,1.637733 0.9962694,1.86259 0.7638643,0.2574 1.8081292,0.05383 2.1984675,-1.007157 C 4.9377224,11.094173 4.9807228,10.683434 4.9684014,10.33 5.1571925,10.19256 5.4477957,9.9545824 5.74454,9.6092488 5.9827317,11.52521 7.6333364,12.842568 9.6058234,12.842568 c 0.9976536,0 2.4990766,-0.622169 2.4990766,-1.155569 0,-0.207431 -0.17785,-0.385347 -0.375406,-0.385347 -0.335844,0 -0.642006,0.652108 -2.1236706,0.652108 -1.6001972,0 -2.8250118,-1.067007 -2.8250118,-2.8252484 0,-1.5705638 1.2148375,-2.8446579 2.7360127,-2.8446579 1.5211747,0 2.6176627,0.8593501 2.6176627,2.4595473 0,1.0667982 -0.513563,1.52127 -0.869161,1.52127 -0.138289,0 -0.187703,-0.07911 -0.187703,-0.197645 0,-0.079019 0.03941,-0.2666231 0.05917,-0.3555229 l 0.306289,-1.7189137 c 0.02963,-0.1382887 0.03953,-0.2271401 0.03953,-0.2864068 0,-0.2765773 -0.197515,-0.4246394 -0.434581,-0.4246394 -0.1778,0 -0.405201,0.049313 -0.474346,0.3555231 l -0.03929,0.1777615 C 10.247941,7.3999618 9.9120187,7.2024855 9.3094753,7.2024855 c -0.9778982,0 -1.8767925,0.9977126 -1.8767925,2.3608436 0,0.9778989 0.6123067,1.7383229 1.4519164,1.7383229 0.4543769,0 0.7902106,-0.227119 1.027277,-0.503697 h 0.019883 c 0.00988,0.335845 0.2074648,0.503697 0.5926958,0.503697 0.259292,0 0.770004,-0.115173 1.262557,-0.432687 1.45e-4,-9.4e-5 3.28e-4,-1.43e-4 4.73e-4,-2.37e-4 a 0.25,0.25 0 0 0 0.0095,-0.0036 c 0,0 0.717037,-0.3987 1.433927,-0.9823042 -0.04094,0.3418032 -0.02,0.7710522 0.141074,1.2947482 0.373127,1.213185 1.498051,2.045055 2.707845,1.702581 0.95218,-0.269547 1.218765,-1.27536 1.131425,-1.997036 -0.202999,-1.6773421 -1.819985,-2.4697254 -1.819985,-2.4697254 0,0 0.48517,-1.4969048 -0.720987,-1.5629287 0.01314,-0.6264143 0.327829,-1.0166255 0.327829,-1.0166255 a 0.1322915,0.1322915 0 0 0 -0.02154,-0.1853359 0.1322915,0.1322915 0 0 0 -0.09563,-0.029351 0.1322915,0.1322915 0 0 0 -0.08995,0.04876 c 0,0 -0.372292,0.4671488 -0.385584,1.1894163 -0.02876,0.00276 -0.05663,0.00492 -0.08687,0.00899 -0.05471,0.00737 -0.106452,0.01695 -0.155749,0.027931 C 14.08742,6.7190018 13.984099,6.5462677 13.884882,6.3924989 13.714131,6.1278667 13.548768,5.9257269 13.548768,5.9257269 a 0.1322915,0.1322915 0 0 0 -0.185572,-0.019409 0.1322915,0.1322915 0 0 0 -0.01941,0.1874663 c 0,0 0.156273,0.1902354 0.318361,0.441445 0.08882,0.1376604 0.177279,0.2954109 0.242618,0.4419185 -0.962673,0.4198663 -0.489726,1.7135552 -0.319072,1.8957285 -0.218753,0.2391489 -0.479826,0.468665 -0.74087,0.6753045 0.111973,-0.311095 0.178708,-0.6725034 0.178708,-1.091186 0,-1.8866522 -1.590467,-3.062185 -3.4771192,-3.0621854 z m -0.059175,2.8744821 c 0.493888,0 0.7605162,0.3457497 0.7605162,0.8495155 0,0.6321767 -0.3951282,1.1160391 -0.9581605,1.1160391 -0.4543769,0 -0.7901039,-0.3160703 -0.7901039,-0.8791026 0,-0.582788 0.4148382,-1.086452 0.9877482,-1.086452 z"
       transform="matrix(2.1832058,0,0,2.1832058,111.88342,90.968121)" /><path
       id="use15"
       clip-path="none"
       style="display:inline;fill:url(#radialGradient15);fill-opacity:1;fill-rule:nonzero;stroke:none;stroke-width:0.265;stroke-linecap:butt;stroke-linejoin:miter;stroke-dasharray:none;stroke-opacity:1"
       d="m 115.82132,112.56617 c -0.27625,0.49935 -0.46301,1.0707 -0.48575,1.71514 -0.0709,2.00974 0.71823,3.57551 2.17506,4.06642 1.65648,0.55819 3.9162,0.12254 4.78162,-2.15336 -1.36863,-0.43607 -4.93494,-1.70122 -6.39548,-3.54241 -0.0265,-0.0334 -0.0503,-0.0569 -0.0755,-0.0858 z" /><path
       id="use22"
       clip-path="none"
       style="display:inline;fill:url(#radialGradient22);fill-opacity:1;fill-rule:nonzero;stroke:none;stroke-width:0.12119px;stroke-linecap:butt;stroke-linejoin:miter;stroke-opacity:1"
       d="m 17.070151,10.283606 c -0.0309,0.02427 -0.06368,0.05336 -0.100361,0.09279 -0.882008,0.947916 -3.175453,1.419561 -3.307879,1.446235 0.514178,0.841867 1.438112,1.334934 2.417888,1.057575 0.952181,-0.269547 1.218765,-1.275359 1.131425,-1.997036 -0.02594,-0.214294 -0.0753,-0.413961 -0.141073,-0.599561 z"
       transform="matrix(2.1832058,0,0,2.1832058,111.88342,90.968121)" /><path
       id="use26"
       mask="none"
       style="display:inline;fill:#ffffff;fill-opacity:0.3;fill-rule:nonzero;stroke:none;stroke-width:0.12119px;stroke-linecap:butt;stroke-linejoin:miter;stroke-opacity:1"
       d="m 16.85144,10.150581 c -0.508591,0.461156 -1.35481,0.813378 -2.071833,1.043136 -0.666634,0.213612 -1.199253,0.320379 -1.273681,0.33493 0.028,0.0612 0.05779,0.121292 0.08971,0.179655 0.173364,-0.03571 0.656809,-0.141604 1.243147,-0.329486 0.729056,-0.233619 1.59345,-0.584877 2.144263,-1.084321 z"
       transform="matrix(2.1832058,0,0,2.1832058,111.88342,90.968121)" /><path
       id="use24"
       mask="none"
       style="display:inline;fill:#f7c800;fill-opacity:1;fill-rule:nonzero;stroke:none;stroke-width:0.121381;stroke-linecap:butt;stroke-linejoin:miter;stroke-dasharray:none;stroke-opacity:1"
       d="m 16.989436,10.244551 -0.05018,0.04639 c -0.51324,0.478709 -1.339021,0.831881 -2.035382,1.060178 -0.696356,0.228298 -1.261373,0.333747 -1.261373,0.333747 l -0.05373,0.01254 c 0.02313,0.04283 0.04895,0.08542 0.07408,0.126634 l 0.0047,-0.0017 c 0,0 0.573109,-0.109383 1.278415,-0.340611 0.705306,-0.231233 1.545195,-0.584212 2.087219,-1.089766 l 0.04994,-0.04734 z"
       transform="matrix(2.1832058,0,0,2.1832058,111.88342,90.968121)" /><path
       id="use27"
       mask="none"
       style="display:inline;fill:#ffffff;fill-opacity:0.3;fill-rule:nonzero;stroke:none;stroke-width:0.121381;stroke-linecap:butt;stroke-linejoin:miter;stroke-dasharray:none;stroke-opacity:1"
       d="m 2.7273279,10.277689 -0.1162196,0.155512 c 0,0 0.5251165,0.391878 1.2900138,0.686192 l 0.069826,-0.181548 C 3.2321275,10.653561 2.7273279,10.277689 2.7273279,10.277689 Z"
       transform="matrix(2.1832058,0,0,2.1832058,111.88342,90.968121)" /><path
       id="use28"
       mask="none"
       style="display:inline;fill:#f7c800;fill-opacity:1;fill-rule:nonzero;stroke:none;stroke-width:0.121381;stroke-linecap:butt;stroke-linejoin:miter;stroke-dasharray:none;stroke-opacity:1"
       d="m 2.5081439,10.365268 -0.076927,0.113616 c 0,0 0.3023891,0.20541 0.6710439,0.40807 0.3686547,0.202656 0.794261,0.408616 1.0940263,0.393395 l -0.0071,-0.136812 C 3.9659775,11.15485 3.5305678,10.965962 3.1685363,10.766947 2.8065048,10.567933 2.5081439,10.365268 2.5081439,10.365268 Z"
       transform="matrix(2.1832058,0,0,2.1832058,111.88342,90.968121)" /><path
       style="fill:url(#linearGradient8);fill-opacity:1;stroke:none;stroke-width:0.264583px;stroke-linecap:butt;stroke-linejoin:miter;stroke-opacity:1"
       d="m 144.63508,109.85058 c -0.33259,1.91237 3.00927,7.85057 6.59868,4.76675 3.48964,-2.99811 -6.2661,-6.67912 -6.59868,-4.76675 z"
       id="path119" /><path
       style="fill:url(#linearGradient176);fill-opacity:1;stroke:none;stroke-width:0.265;stroke-linecap:butt;stroke-linejoin:miter;stroke-dasharray:none;stroke-opacity:1"
       d="m 120.19851,109.84357 c -2.04144,-0.5332 -9.22765,0.28065 -7.35052,3.89918 2.20679,4.254 9.39196,-3.36597 7.35052,-3.89918 z"
       id="path117" /><path
       style="display:inline;fill:url(#linearGradient2);fill-opacity:1;fill-rule:nonzero;stroke:none;stroke-width:0.12119px;stroke-linecap:butt;stroke-linejoin:miter;stroke-opacity:1;filter:url(#filter187)"
       d="M 4.6747412,8.8087186 C 3.871122,8.4952424 2.6835491,12.528444 5.3401882,12.520739 6.3667683,12.517762 5.4783605,9.1221948 4.6747412,8.8087186 Z"
       id="path118"
       transform="matrix(2.1832058,0,0,2.1832058,111.88342,90.968121)" /></g></svg>
